<?xml version="1.0" standalone="no"?>
<!DOCTYPE svg PUBLIC "-//W3C//DTD SVG 1.0//EN" "http://www.w3.org/TR/2001/REC-SVG-20010904/DTD/svg10.dtd">
<svg xmlns="http://www.w3.org/2000/svg" xmlns:xlink="http://www.w3.org/1999/xlink" id="body_1" width="200" height="169">

<g transform="matrix(0.21257862 0 0 0.21257862 0.19434258 -0)">
    <path d="M797 327C 797.00006 236.70145 765.0747 159.62682 701.2239 95.77609C 637.37317 31.925365 560.2986 0 470 0C 379.70148 0 302.62683 31.925365 238.7761 95.77609C 174.92537 159.62682 143 236.70145 143 327C 143 417.29855 174.92537 494.37317 238.7761 558.2239C 302.62683 622.07465 379.70148 654 470 654C 560.2986 654 637.37317 622.07465 701.2239 558.2239C 765.0747 494.37317 797.00006 417.29855 797 327" stroke="none" fill="#FFDBDB" fill-rule="nonzero" />
    <path d="M315.129 114C 315.129 111.23858 317.36758 109 320.129 109L320.129 109L619.129 109C 621.89044 109 624.129 111.23858 624.129 114L624.129 114L624.129 156C 624.129 158.76143 621.89044 161 619.129 161L619.129 161L320.129 161C 317.36758 161 315.129 158.76143 315.129 156L315.129 156L315.129 114z" stroke="none" fill="#FFFFFF" fill-rule="nonzero" />
    <path d="M315.129 114C 315.129 111.23858 317.36758 109 320.129 109L320.129 109L619.129 109C 621.89044 109 624.129 111.23858 624.129 114L624.129 114L624.129 156C 624.129 158.76143 621.89044 161 619.129 161L619.129 161L320.129 161C 317.36758 161 315.129 158.76143 315.129 156L315.129 156L315.129 114z" stroke="#FF3333" stroke-width="20" fill="#FFDBDB" fill-rule="nonzero" />
    <path d="M350.129 160C 350.129 157.23857 352.36758 155 355.129 155L355.129 155L584.129 155C 586.89044 155 589.129 157.23857 589.129 160L589.129 160L589.129 202C 589.129 204.76143 586.89044 207 584.129 207L584.129 207L355.129 207C 352.36758 207 350.129 204.76143 350.129 202L350.129 202L350.129 160z" stroke="none" fill="#FF3333" fill-rule="nonzero" />
    <path d="M462.638 187.071C 466.544 183.166 472.875 183.166 476.781 187.071L476.781 187.071L619.646 329.937C 622.618 332.909 623.415 337.422 621.64 341.231L621.64 341.231L478.774 647.838C 475.185 655.539 464.234 655.539 460.645 647.838L460.645 647.838L317.779 341.231C 316.004 337.422 316.801 332.909 319.773 329.937L319.773 329.937L462.638 187.071z" stroke="none" fill="#FF3333" fill-rule="nonzero" />
    <path d="M458 186C 458 183.23857 460.2386 181 463 181L463 181L477 181C 479.7614 181 482 183.23857 482 186L482 186L482 259C 482 261.7614 479.7614 264 477 264L477 264L463 264C 460.2386 264 458 261.7614 458 259L458 259L458 186z" stroke="none" fill="#FFDBDB" fill-rule="nonzero" />
    <path d="M513 327.5C 513 315.48782 508.75305 305.23477 500.25916 296.74084C 491.76526 288.24695 481.5122 284 469.5 284C 457.48782 284 447.23477 288.24695 438.74084 296.74084C 430.24695 305.23477 426 315.48782 426 327.5C 426 339.5122 430.24695 349.76526 438.74084 358.25916C 447.23477 366.75305 457.48782 371 469.5 371C 481.5122 371 491.76526 366.75305 500.25916 358.25916C 508.75305 349.76526 513 339.5122 513 327.5" stroke="none" fill="#FFDBDB" fill-rule="nonzero" />
    <path d="M427 714C 427 711.2386 429.2386 709 432 709L432 709L508 709C 510.7614 709 513 711.2386 513 714L513 714L513 790C 513 792.7614 510.7614 795 508 795L508 795L432 795C 429.2386 795 427 792.7614 427 790L427 790L427 714z" stroke="none" fill="#FF3333" fill-rule="nonzero" />
    <path d="M0 289C 0 286.2386 2.2385762 284 5 284L5 284L81 284C 83.76142 284 86 286.2386 86 289L86 289L86 365C 86 367.7614 83.76142 370 81 370L81 370L5 370C 2.2385762 370 0 367.7614 0 365L0 365L0 289z" stroke="none" fill="#FF3333" fill-rule="nonzero" />
    <path d="M853 289C 853 286.2386 855.2386 284 858 284L858 284L934 284C 936.7614 284 939 286.2386 939 289L939 289L939 365C 939 367.7614 936.7614 370 934 370L934 370L858 370C 855.2386 370 853 367.7614 853 365L853 365L853 289z" stroke="none" fill="#FF3333" fill-rule="nonzero" />
    <path d="M898 327C 898 563.378 706.378 755 470 755C 233.622 755 42 563.378 42 327" stroke="#FF3333" stroke-width="20" fill="none" />
    <path d="M0 749C 0 746.2386 2.2385762 744 5 744L5 744L934 744C 936.7614 744 939 746.2386 939 749L939 749L939 759C 939 761.7614 936.7614 764 934 764L934 764L5 764C 2.2385762 764 0 761.7614 0 759L0 759L0 749z" stroke="none" fill="#FF3333" fill-rule="nonzero" />
</g>
</svg>